<svg width="16" height="17" viewBox="0 0 16 17" fill="none" xmlns="http://www.w3.org/2000/svg">
<path d="M6.00016 12.0617H4.66683C3.78277 12.0617 2.93493 11.7105 2.30981 11.0854C1.68469 10.4603 1.3335 9.61241 1.3335 8.72835C1.3335 7.8443 1.68469 6.99645 2.30981 6.37133C2.93493 5.74621 3.78277 5.39502 4.66683 5.39502H6.00016" stroke="black" stroke-width="2" stroke-linecap="round" stroke-linejoin="round"/>
<path d="M10 5.39502H11.3333C12.2174 5.39502 13.0652 5.74621 13.6904 6.37133C14.3155 6.99645 14.6667 7.8443 14.6667 8.72835C14.6667 9.61241 14.3155 10.4603 13.6904 11.0854C13.0652 11.7105 12.2174 12.0617 11.3333 12.0617H10" stroke="black" stroke-width="2" stroke-linecap="round" stroke-linejoin="round"/>
<path d="M5.3335 8.72852H10.6668" stroke="black" stroke-width="2" stroke-linecap="round" stroke-linejoin="round"/>
</svg>
