<svg width="23" height="21" viewBox="0 0 23 21" fill="none" xmlns="http://www.w3.org/2000/svg">
<path d="M19.6018 12.0547L19.6024 9.59567L24.4024 9.59454L24.4018 12.0536L19.6018 12.0547ZM21.0398 20.6609L17.2005 17.711L18.641 15.7434L22.4803 18.6933L21.0398 20.6609ZM18.6432 5.90738L17.2037 3.94051L21.0443 0.988796L22.4839 2.95567L18.6432 5.90738ZM4.00007 19.4354L4.0012 14.5174L2.8012 14.5176C2.1412 14.5178 1.57625 14.2772 1.10636 13.7957C0.636468 13.3143 0.4016 12.7354 0.401756 12.0592L0.40232 9.60019C0.402476 8.92396 0.637609 8.34502 1.10772 7.86335C1.57783 7.38168 2.14289 7.14077 2.80289 7.14061L7.6029 7.13949L13.6038 3.44956L13.6004 18.2036L7.60121 14.5165L6.4012 14.5168L6.40008 19.4348L4.00007 19.4354ZM11.2014 13.8394L11.2028 7.81487L8.26234 9.59834L2.80233 9.59963L2.80176 12.0586L8.26177 12.0574L11.2014 13.8394ZM14.8011 14.9452L14.803 6.70746C15.3429 7.19914 15.7778 7.79842 16.1076 8.50531C16.4374 9.2122 16.6023 9.98572 16.6021 10.8259C16.6019 11.666 16.4367 12.4396 16.1065 13.1467C15.7764 13.8537 15.3412 14.4532 14.8011 14.9452Z" fill="#312D37"/>
</svg>
