<svg width="20" height="20" viewBox="0 0 20 20" fill="none" xmlns="http://www.w3.org/2000/svg">
<path d="M8.60286 11.771L7.4362 10.6043C7.26953 10.4377 7.07509 10.3543 6.85286 10.3543C6.63064 10.3543 6.4362 10.4377 6.26953 10.6043C6.10286 10.771 6.01953 10.9689 6.01953 11.1981C6.01953 11.4272 6.10286 11.6252 6.26953 11.7918L8.04036 13.5835C8.20703 13.7502 8.40148 13.8335 8.6237 13.8335C8.84592 13.8335 9.04037 13.7502 9.20703 13.5835L12.7279 10.0627C12.8945 9.896 12.9779 9.69461 12.9779 9.4585C12.9779 9.22238 12.8945 9.021 12.7279 8.85433C12.5612 8.68766 12.3598 8.60433 12.1237 8.60433C11.8876 8.60433 11.6862 8.68766 11.5195 8.85433L8.60286 11.771ZM5.41536 16.6668C4.15148 16.6668 3.07161 16.2293 2.17578 15.3543C1.27995 14.4793 0.832031 13.4099 0.832031 12.146C0.832031 11.0627 1.15842 10.0974 1.8112 9.25016C2.46398 8.40294 3.31814 7.86127 4.3737 7.62516C4.72092 6.34738 5.41536 5.31266 6.45703 4.521C7.4987 3.72933 8.67925 3.3335 9.9987 3.3335C11.6237 3.3335 13.0022 3.89947 14.1341 5.03141C15.2661 6.16336 15.832 7.54183 15.832 9.16683C16.7904 9.27794 17.5855 9.69113 18.2174 10.4064C18.8494 11.1217 19.1654 11.9585 19.1654 12.9168C19.1654 13.9585 18.8008 14.8439 18.0716 15.5731C17.3424 16.3022 16.457 16.6668 15.4154 16.6668H5.41536ZM5.41536 15.0002H15.4154C15.9987 15.0002 16.4918 14.7988 16.8945 14.396C17.2973 13.9932 17.4987 13.5002 17.4987 12.9168C17.4987 12.3335 17.2973 11.8404 16.8945 11.4377C16.4918 11.0349 15.9987 10.8335 15.4154 10.8335H14.1654V9.16683C14.1654 8.01405 13.7591 7.03141 12.9466 6.21891C12.1341 5.40641 11.1515 5.00016 9.9987 5.00016C8.84592 5.00016 7.86328 5.40641 7.05078 6.21891C6.23828 7.03141 5.83203 8.01405 5.83203 9.16683H5.41536C4.60981 9.16683 3.92231 9.45155 3.35286 10.021C2.78342 10.5904 2.4987 11.2779 2.4987 12.0835C2.4987 12.8891 2.78342 13.5766 3.35286 14.146C3.92231 14.7154 4.60981 15.0002 5.41536 15.0002Z" fill="#B0ABB2"/>
</svg>
